G04 #@! TF.GenerationSoftware,KiCad,Pcbnew,(6.0.0-0)*
G04 #@! TF.CreationDate,2022-05-01T22:25:31-03:00*
G04 #@! TF.ProjectId,3lw_fp_and_bp_circuit,336c775f-6670-45f6-916e-645f62705f63,rev?*
G04 #@! TF.SameCoordinates,Original*
G04 #@! TF.FileFunction,Soldermask,Bot*
G04 #@! TF.FilePolarity,Negative*
%FSLAX46Y46*%
G04 Gerber Fmt 4.6, Leading zero omitted, Abs format (unit mm)*
G04 Created by KiCad (PCBNEW (6.0.0-0)) date 2022-05-01 22:25:31*
%MOMM*%
%LPD*%
G01*
G04 APERTURE LIST*
%ADD10C,1.600000*%
%ADD11O,1.600000X1.600000*%
%ADD12C,2.000000*%
%ADD13R,1.600000X1.600000*%
%ADD14R,1.500000X1.050000*%
%ADD15O,1.500000X1.050000*%
%ADD16R,1.700000X1.700000*%
%ADD17O,1.700000X1.700000*%
%ADD18R,2.000000X2.000000*%
%ADD19R,2.500000X3.000000*%
%ADD20R,1.050000X1.500000*%
%ADD21O,1.050000X1.500000*%
%ADD22C,2.082800*%
%ADD23O,1.800000X1.800000*%
%ADD24O,1.500000X1.500000*%
%ADD25R,3.500000X1.700000*%
%ADD26R,1.700000X3.500000*%
%ADD27R,2.000000X1.905000*%
%ADD28O,2.000000X1.905000*%
%ADD29R,2.200000X2.200000*%
%ADD30O,2.200000X2.200000*%
G04 APERTURE END LIST*
D10*
X25752109Y-91650000D03*
D11*
X25752109Y-84030000D03*
D12*
X97067827Y-122936789D03*
X85567827Y-122936789D03*
X94067827Y-122936789D03*
D10*
X33016509Y-112630400D03*
D11*
X25396509Y-112630400D03*
D13*
X50669509Y-85655600D03*
D11*
X50669509Y-78035600D03*
D12*
X114466800Y-90911520D03*
X102966800Y-90911520D03*
X111466800Y-90911520D03*
D10*
X44598909Y-89922800D03*
D11*
X44598909Y-97542800D03*
D10*
X31238509Y-61779600D03*
D11*
X31238509Y-54159600D03*
D10*
X57690306Y-97238000D03*
D11*
X57690306Y-104858000D03*
D13*
X66595309Y-59290400D03*
D11*
X74215309Y-59290400D03*
D10*
X34997709Y-89922800D03*
D11*
X34997709Y-97542800D03*
D10*
X76856909Y-87941600D03*
D11*
X76856909Y-95561600D03*
D10*
X32813309Y-69715200D03*
X32813309Y-64715200D03*
X53285709Y-78442000D03*
D11*
X60905709Y-78442000D03*
D12*
X114485150Y-122898782D03*
X102985150Y-122898782D03*
X111485150Y-122898782D03*
D14*
X22704109Y-37395600D03*
D15*
X22704109Y-36125600D03*
X22704109Y-34855600D03*
D12*
X131656205Y-90911520D03*
X120156205Y-90911520D03*
X128656205Y-90911520D03*
X97042427Y-112641277D03*
X85542427Y-112641277D03*
X94042427Y-112641277D03*
D10*
X60789106Y-98609600D03*
X60789106Y-103609600D03*
X21992909Y-54159600D03*
D11*
X21992909Y-61779600D03*
D10*
X49628109Y-99778000D03*
D11*
X49628109Y-107398000D03*
D12*
X96991627Y-90936920D03*
X85491627Y-90936920D03*
X93991627Y-90936920D03*
D10*
X58405709Y-94139200D03*
X63405709Y-94139200D03*
D12*
X104742200Y-23056606D03*
X111242200Y-23056606D03*
X111242200Y-27556606D03*
X104742200Y-27556606D03*
D10*
X33016509Y-106432800D03*
D11*
X25396509Y-106432800D03*
D10*
X34134109Y-73351200D03*
X34134109Y-78351200D03*
X38198109Y-91842400D03*
X38198109Y-96842400D03*
X73935909Y-69501200D03*
D11*
X73935909Y-61881200D03*
D13*
X43379709Y-99828800D03*
D11*
X40839709Y-99828800D03*
X38299709Y-99828800D03*
X35759709Y-99828800D03*
X35759709Y-107448800D03*
X38299709Y-107448800D03*
X40839709Y-107448800D03*
X43379709Y-107448800D03*
D14*
X28906109Y-37395600D03*
D15*
X28906109Y-36125600D03*
X28906109Y-34855600D03*
D10*
X33016509Y-109531600D03*
D11*
X25396509Y-109531600D03*
D16*
X104014400Y-32675256D03*
D17*
X106554400Y-32675256D03*
X109094400Y-32675256D03*
X111634400Y-32675256D03*
D10*
X25142509Y-48470000D03*
D11*
X25142509Y-40850000D03*
D10*
X42058909Y-115384400D03*
X42058909Y-110384400D03*
D13*
X76958509Y-60204800D03*
D11*
X76958509Y-67824800D03*
D12*
X114485150Y-112603270D03*
X102985150Y-112603270D03*
X111485150Y-112603270D03*
D13*
X47646909Y-78035600D03*
D11*
X47646909Y-85655600D03*
D10*
X70506909Y-69475800D03*
D11*
X70506909Y-61855800D03*
D10*
X21891309Y-81540800D03*
D11*
X21891309Y-73920800D03*
D10*
X47697709Y-97542800D03*
D11*
X47697709Y-89922800D03*
D10*
X53285709Y-85274600D03*
D11*
X60905709Y-85274600D03*
D10*
X35708909Y-117304000D03*
D11*
X35708909Y-109684000D03*
D12*
X97017027Y-101046525D03*
X85517027Y-101046525D03*
X94017027Y-101046525D03*
D10*
X70608509Y-86976400D03*
D11*
X70608509Y-94596400D03*
D10*
X37486909Y-85223800D03*
D11*
X45106909Y-85223800D03*
D18*
X92984227Y-62470866D03*
D12*
X87984227Y-62470866D03*
X90484227Y-62470866D03*
D19*
X84884227Y-69970866D03*
X96084227Y-69970866D03*
D12*
X92984227Y-76970866D03*
X87984227Y-76970866D03*
D10*
X33016509Y-115729200D03*
D11*
X25396509Y-115729200D03*
D18*
X127638205Y-62470866D03*
D12*
X122638205Y-62470866D03*
X125138205Y-62470866D03*
D19*
X119538205Y-69970866D03*
X130738205Y-69970866D03*
D12*
X127638205Y-76970866D03*
X122638205Y-76970866D03*
D10*
X21992909Y-51772000D03*
D11*
X21992909Y-44152000D03*
D10*
X31035309Y-81540800D03*
D11*
X31035309Y-73920800D03*
D13*
X74443909Y-83242600D03*
D11*
X66823909Y-83242600D03*
D10*
X67357309Y-80677200D03*
D11*
X67357309Y-73057200D03*
D10*
X28190509Y-61119200D03*
X28190509Y-56119200D03*
D12*
X121314264Y-23056606D03*
X114814264Y-23056606D03*
X114814264Y-27556606D03*
X121314264Y-27556606D03*
D18*
X110492200Y-62470866D03*
D12*
X105492200Y-62470866D03*
X107992200Y-62470866D03*
D19*
X102392200Y-69970866D03*
X113592200Y-69970866D03*
D12*
X110492200Y-76970866D03*
X105492200Y-76970866D03*
D13*
X29653709Y-64065600D03*
D11*
X27113709Y-64065600D03*
X24573709Y-64065600D03*
X22033709Y-64065600D03*
X22033709Y-71685600D03*
X24573709Y-71685600D03*
X27113709Y-71685600D03*
X29653709Y-71685600D03*
D10*
X25091709Y-54159600D03*
D11*
X25091709Y-61779600D03*
D12*
X131668455Y-100995725D03*
X120168455Y-100995725D03*
X128668455Y-100995725D03*
D13*
X71040706Y-104898800D03*
D11*
X71040706Y-102358800D03*
X71040706Y-99818800D03*
X71040706Y-97278800D03*
X63420706Y-97278800D03*
X63420706Y-99818800D03*
X63420706Y-102358800D03*
X63420706Y-104898800D03*
D10*
X46529309Y-107398000D03*
D11*
X46529309Y-99778000D03*
D10*
X24939309Y-74621200D03*
X24939309Y-79621200D03*
D12*
X94719973Y-23056606D03*
X101219973Y-23056606D03*
X101219973Y-27556606D03*
X94719973Y-27556606D03*
D10*
X66874709Y-61932000D03*
D11*
X66874709Y-69552000D03*
D10*
X41449309Y-91842400D03*
X41449309Y-96842400D03*
D12*
X131699055Y-112603270D03*
X120199055Y-112603270D03*
X128699055Y-112603270D03*
D10*
X38858509Y-115384400D03*
X38858509Y-110384400D03*
X73707309Y-73108000D03*
D11*
X73707309Y-80728000D03*
D10*
X33016509Y-103334000D03*
D11*
X25396509Y-103334000D03*
D10*
X33028909Y-100235200D03*
D11*
X25408909Y-100235200D03*
D12*
X114485150Y-101021125D03*
X102985150Y-101021125D03*
X111485150Y-101021125D03*
D10*
X56943309Y-91040400D03*
D11*
X64563309Y-91040400D03*
D10*
X73758109Y-99665600D03*
X73758109Y-104665600D03*
D12*
X131692955Y-122878582D03*
X120192955Y-122878582D03*
X128692955Y-122878582D03*
D16*
X22326800Y-85995800D03*
D17*
X22326800Y-88535800D03*
X22326800Y-91075800D03*
X22326800Y-93615800D03*
X22326800Y-96155800D03*
X22326800Y-98695800D03*
X22326800Y-101235800D03*
X22326800Y-103775800D03*
X22326800Y-106315800D03*
X22326800Y-108855800D03*
X22326800Y-111395800D03*
X22326800Y-113935800D03*
X22326800Y-116475800D03*
X22326800Y-119015800D03*
D10*
X54489906Y-104858000D03*
D11*
X54489906Y-97238000D03*
D10*
X73758109Y-91069600D03*
X73758109Y-96069600D03*
D20*
X31492509Y-86214400D03*
D21*
X30222509Y-86214400D03*
X28952509Y-86214400D03*
D10*
X76856909Y-97746000D03*
D11*
X76856909Y-105366000D03*
D10*
X70506909Y-73108000D03*
D11*
X70506909Y-80728000D03*
D13*
X77060109Y-80880400D03*
D11*
X77060109Y-73260400D03*
D10*
X27987309Y-73920800D03*
D11*
X27987309Y-81540800D03*
D16*
X75995343Y-22156677D03*
D17*
X75995343Y-24696677D03*
X75995343Y-27236677D03*
X75995343Y-29776677D03*
X75995343Y-32316677D03*
X75995343Y-34856677D03*
X75995343Y-37396677D03*
X75995343Y-39936677D03*
X75995343Y-42476677D03*
X75995343Y-45016677D03*
X75995343Y-47556677D03*
X75995343Y-50096677D03*
X75995343Y-52636677D03*
X75995343Y-55176677D03*
D13*
X63953709Y-118800676D03*
D10*
X63953709Y-121300676D03*
D22*
X71786909Y-121825200D03*
X74580909Y-121825200D03*
X71786909Y-119285200D03*
X74580909Y-119285200D03*
X71786909Y-116745200D03*
X74580909Y-116745200D03*
X71786909Y-114205200D03*
X74580909Y-114205200D03*
X71786909Y-111665200D03*
X74580909Y-111665200D03*
D23*
X51540309Y-70886200D03*
X46090309Y-70886200D03*
D24*
X46390309Y-67856200D03*
X51240309Y-67856200D03*
D17*
X39925309Y-71016200D03*
D25*
X39025309Y-71016200D03*
D17*
X39925309Y-68476200D03*
D25*
X39025309Y-68476200D03*
D16*
X39925309Y-65936200D03*
D25*
X39025309Y-65936200D03*
X39025309Y-63396200D03*
D17*
X39925309Y-63396200D03*
X39925309Y-60856200D03*
D25*
X39025309Y-60856200D03*
X39025309Y-58316200D03*
D17*
X39925309Y-58316200D03*
D25*
X39025309Y-55776200D03*
D17*
X39925309Y-55776200D03*
D25*
X39025309Y-53236200D03*
D16*
X39925309Y-53236200D03*
D25*
X39025309Y-50696200D03*
D17*
X39925309Y-50696200D03*
X39925309Y-48156200D03*
D25*
X39025309Y-48156200D03*
X39025309Y-45616200D03*
D17*
X39925309Y-45616200D03*
D25*
X39025309Y-43076200D03*
D17*
X39925309Y-43076200D03*
D16*
X39925309Y-40536200D03*
D25*
X39025309Y-40536200D03*
D17*
X39925309Y-37996200D03*
D25*
X39025309Y-37996200D03*
D17*
X39925309Y-35456200D03*
D25*
X39025309Y-35456200D03*
X39025309Y-32916200D03*
D17*
X39925309Y-32916200D03*
X39925309Y-30376200D03*
D25*
X39025309Y-30376200D03*
D16*
X39925309Y-27836200D03*
D25*
X39025309Y-27836200D03*
D17*
X39925309Y-25296200D03*
D25*
X39025309Y-25296200D03*
D17*
X39925309Y-22756200D03*
D25*
X39025309Y-22756200D03*
X58605309Y-22756200D03*
D17*
X57705309Y-22756200D03*
X57705309Y-25296200D03*
D25*
X58605309Y-25296200D03*
D16*
X57705309Y-27836200D03*
D25*
X58605309Y-27836200D03*
X58605309Y-30376200D03*
D17*
X57705309Y-30376200D03*
X57705309Y-32916200D03*
D25*
X58605309Y-32916200D03*
D17*
X57705309Y-35456200D03*
D25*
X58605309Y-35456200D03*
D17*
X57705309Y-37996200D03*
D25*
X58605309Y-37996200D03*
X58605309Y-40536200D03*
D16*
X57705309Y-40536200D03*
D25*
X58605309Y-43076200D03*
D17*
X57705309Y-43076200D03*
X57705309Y-45616200D03*
D25*
X58605309Y-45616200D03*
D17*
X57705309Y-48156200D03*
D25*
X58605309Y-48156200D03*
X58605309Y-50696200D03*
D17*
X57705309Y-50696200D03*
D16*
X57705309Y-53236200D03*
D25*
X58605309Y-53236200D03*
X58605309Y-55776200D03*
D17*
X57705309Y-55776200D03*
X57705309Y-58316200D03*
D25*
X58605309Y-58316200D03*
D17*
X57705309Y-60856200D03*
D25*
X58605309Y-60856200D03*
D17*
X57705309Y-63396200D03*
D25*
X58605309Y-63396200D03*
D16*
X57705309Y-65936200D03*
D25*
X58605309Y-65936200D03*
D17*
X57705309Y-68476200D03*
D25*
X58605309Y-68476200D03*
X58605309Y-71016200D03*
D17*
X57705309Y-71016200D03*
D26*
X46275309Y-22086200D03*
D17*
X46275309Y-22986200D03*
D26*
X48815309Y-22086200D03*
D16*
X48815309Y-22986200D03*
D26*
X51355309Y-22086200D03*
D17*
X51355309Y-22986200D03*
D27*
X48713709Y-114154400D03*
D28*
X48713709Y-116694400D03*
X48713709Y-119234400D03*
D29*
X66493709Y-125240790D03*
D30*
X58873709Y-125240790D03*
D16*
X80988272Y-85928400D03*
D17*
X80988272Y-88468400D03*
X80988272Y-91008400D03*
X80988272Y-93548400D03*
X80988272Y-96088400D03*
X80988272Y-98628400D03*
X80988272Y-101168400D03*
X80988272Y-103708400D03*
X80988272Y-106248400D03*
X80988272Y-108788400D03*
X80988272Y-111328400D03*
X80988272Y-113868400D03*
X80988272Y-116408400D03*
X80988272Y-118948400D03*
D29*
X58873709Y-108414000D03*
D30*
X66493709Y-108414000D03*
D16*
X134661699Y-22098200D03*
D17*
X134661699Y-24638200D03*
X134661699Y-27178200D03*
X134661699Y-29718200D03*
X134661699Y-32258200D03*
X134661699Y-34798200D03*
X134661699Y-37338200D03*
X134661699Y-39878200D03*
X134661699Y-42418200D03*
X134661699Y-44958200D03*
X134661699Y-47498200D03*
X134661699Y-50038200D03*
X134661699Y-52578200D03*
X134661699Y-55118200D03*
D13*
X63899234Y-112518674D03*
D10*
X63899234Y-115018674D03*
D27*
X55337909Y-119234400D03*
D28*
X55337909Y-116694400D03*
X55337909Y-114154400D03*
M02*
