M48
; DRILL file {KiCad (6.0.0-0)} date Sunday, May 01, 2022 at 10:25:57 pm
; FORMAT={-:-/ absolute / metric / decimal}
; #@! TF.CreationDate,2022-05-01T22:25:57-03:00
; #@! TF.GenerationSoftware,Kicad,Pcbnew,(6.0.0-0)
; #@! TF.FileFunction,Plated,1,2,PTH
FMAT,2
METRIC
; #@! TA.AperFunction,Plated,PTH,ViaDrill
T1C0.400
; #@! TA.AperFunction,Plated,PTH,ComponentDrill
T2C0.750
; #@! TA.AperFunction,Plated,PTH,ComponentDrill
T3C0.800
; #@! TA.AperFunction,Plated,PTH,ComponentDrill
T4C1.000
; #@! TA.AperFunction,Plated,PTH,ComponentDrill
T5C1.016
; #@! TA.AperFunction,Plated,PTH,ComponentDrill
T6C1.020
; #@! TA.AperFunction,Plated,PTH,ComponentDrill
T7C1.100
; #@! TA.AperFunction,Plated,PTH,ComponentDrill
T8C2.000
%
G90
G05
T1
X22.434Y-67.977
X27.225Y-91.904
X27.288Y-95.104
X27.987Y-92.869
X28.343Y-69.196
X28.648Y-51.518
X30.019Y-67.774
X30.172Y-109.684
X30.731Y-106.433
X31.543Y-92.463
X32.356Y-45.117
X33.118Y-92.666
X33.321Y-47.149
X33.829Y-98.813
X34.185Y-88.043
X34.642Y-66.098
X34.99Y-69.951
X35.099Y-45.879
X35.416Y-72.397
X36.623Y-87.789
X36.815Y-72.448
X37.385Y-82.76
X39.824Y-87.027
X41.246Y-85.097
X41.602Y-65.691
X43.735Y-109.328
X44.396Y-111.614
X44.396Y-113.646
X46.123Y-40.647
X46.783Y-49.384
X48.206Y-73.921
X48.46Y-109.43
X50.492Y-73.972
X50.492Y-111.462
X51.203Y-87.688
X52.016Y-110.598
X52.117Y-44.711
X52.371Y-42.679
X52.575Y-75.953
X52.879Y-112.986
X53.54Y-47.81
X53.641Y-87.942
X66.697Y-37.853
X68.221Y-78.34
X72.183Y-43.949
X72.234Y-53.093
X72.234Y-81.947
T2
X22.704Y-34.856
X22.704Y-36.126
X22.704Y-37.396
X28.906Y-34.856
X28.906Y-36.126
X28.906Y-37.396
X28.953Y-86.214
X30.223Y-86.214
X31.493Y-86.214
T3
X21.891Y-73.921
X21.891Y-81.541
X21.993Y-44.152
X21.993Y-51.772
X21.993Y-54.16
X21.993Y-61.78
X22.034Y-64.066
X22.034Y-71.686
X24.574Y-64.066
X24.574Y-71.686
X24.939Y-74.621
X24.939Y-79.621
X25.092Y-54.16
X25.092Y-61.78
X25.143Y-40.85
X25.143Y-48.47
X25.397Y-103.334
X25.397Y-106.433
X25.397Y-109.532
X25.397Y-112.63
X25.397Y-115.729
X25.409Y-100.235
X25.752Y-84.03
X25.752Y-91.65
X27.114Y-64.066
X27.114Y-71.686
X27.987Y-73.921
X27.987Y-81.541
X28.191Y-56.119
X28.191Y-61.119
X29.654Y-64.066
X29.654Y-71.686
X31.035Y-73.921
X31.035Y-81.541
X31.239Y-54.16
X31.239Y-61.78
X32.813Y-64.715
X32.813Y-69.715
X33.017Y-103.334
X33.017Y-106.433
X33.017Y-109.532
X33.017Y-112.63
X33.017Y-115.729
X33.029Y-100.235
X34.134Y-73.351
X34.134Y-78.351
X34.998Y-89.923
X34.998Y-97.543
X35.709Y-109.684
X35.709Y-117.304
X35.76Y-99.829
X35.76Y-107.449
X37.487Y-85.224
X38.198Y-91.842
X38.198Y-96.842
X38.3Y-99.829
X38.3Y-107.449
X38.859Y-110.384
X38.859Y-115.384
X40.84Y-99.829
X40.84Y-107.449
X41.449Y-91.842
X41.449Y-96.842
X42.059Y-110.384
X42.059Y-115.384
X43.38Y-99.829
X43.38Y-107.449
X44.599Y-89.923
X44.599Y-97.543
X45.107Y-85.224
X46.529Y-99.778
X46.529Y-107.398
X47.647Y-78.036
X47.647Y-85.656
X47.698Y-89.923
X47.698Y-97.543
X49.628Y-99.778
X49.628Y-107.398
X50.67Y-78.036
X50.67Y-85.656
X53.286Y-78.442
X53.286Y-85.275
X54.49Y-97.238
X54.49Y-104.858
X56.943Y-91.04
X57.69Y-97.238
X57.69Y-104.858
X58.406Y-94.139
X60.789Y-98.61
X60.789Y-103.61
X60.906Y-78.442
X60.906Y-85.275
X63.406Y-94.139
X63.421Y-97.279
X63.421Y-99.819
X63.421Y-102.359
X63.421Y-104.899
X63.899Y-112.519
X63.899Y-115.019
X63.954Y-118.801
X63.954Y-121.301
X64.563Y-91.04
X66.595Y-59.29
X66.824Y-83.243
X66.875Y-61.932
X66.875Y-69.552
X67.357Y-73.057
X67.357Y-80.677
X70.507Y-61.856
X70.507Y-69.476
X70.507Y-73.108
X70.507Y-80.728
X70.609Y-86.976
X70.609Y-94.596
X71.041Y-97.279
X71.041Y-99.819
X71.041Y-102.359
X71.041Y-104.899
X73.707Y-73.108
X73.707Y-80.728
X73.758Y-91.07
X73.758Y-96.07
X73.758Y-99.666
X73.758Y-104.666
X73.936Y-61.881
X73.936Y-69.501
X74.215Y-59.29
X74.444Y-83.243
X76.857Y-87.942
X76.857Y-95.562
X76.857Y-97.746
X76.857Y-105.366
X76.959Y-60.205
X76.959Y-67.825
X77.06Y-73.26
X77.06Y-80.88
T4
X22.327Y-85.996
X22.327Y-88.536
X22.327Y-91.076
X22.327Y-93.616
X22.327Y-96.156
X22.327Y-98.696
X22.327Y-101.236
X22.327Y-103.776
X22.327Y-106.316
X22.327Y-108.856
X22.327Y-111.396
X22.327Y-113.936
X22.327Y-116.476
X22.327Y-119.016
X75.995Y-22.157
X75.995Y-24.697
X75.995Y-27.237
X75.995Y-29.777
X75.995Y-32.317
X75.995Y-34.857
X75.995Y-37.397
X75.995Y-39.937
X75.995Y-42.477
X75.995Y-45.017
X75.995Y-47.557
X75.995Y-50.097
X75.995Y-52.637
X75.995Y-55.177
X80.988Y-85.928
X80.988Y-88.468
X80.988Y-91.008
X80.988Y-93.548
X80.988Y-96.088
X80.988Y-98.628
X80.988Y-101.168
X80.988Y-103.708
X80.988Y-106.248
X80.988Y-108.788
X80.988Y-111.328
X80.988Y-113.868
X80.988Y-116.408
X80.988Y-118.948
X87.984Y-62.471
X87.984Y-76.971
X90.484Y-62.471
X92.984Y-62.471
X92.984Y-76.971
X104.014Y-32.675
X105.492Y-62.471
X105.492Y-76.971
X106.554Y-32.675
X107.992Y-62.471
X109.094Y-32.675
X110.492Y-62.471
X110.492Y-76.971
X111.634Y-32.675
X122.638Y-62.471
X122.638Y-76.971
X125.138Y-62.471
X127.638Y-62.471
X127.638Y-76.971
X134.662Y-22.098
X134.662Y-24.638
X134.662Y-27.178
X134.662Y-29.718
X134.662Y-32.258
X134.662Y-34.798
X134.662Y-37.338
X134.662Y-39.878
X134.662Y-42.418
X134.662Y-44.958
X134.662Y-47.498
X134.662Y-50.038
X134.662Y-52.578
X134.662Y-55.118
T5
X71.787Y-111.665
X71.787Y-114.205
X71.787Y-116.745
X71.787Y-119.285
X71.787Y-121.825
X74.581Y-111.665
X74.581Y-114.205
X74.581Y-116.745
X74.581Y-119.285
X74.581Y-121.825
T6
X39.925Y-22.756
X39.925Y-25.296
X39.925Y-27.836
X39.925Y-30.376
X39.925Y-32.916
X39.925Y-35.456
X39.925Y-37.996
X39.925Y-40.536
X39.925Y-43.076
X39.925Y-45.616
X39.925Y-48.156
X39.925Y-50.696
X39.925Y-53.236
X39.925Y-55.776
X39.925Y-58.316
X39.925Y-60.856
X39.925Y-63.396
X39.925Y-65.936
X39.925Y-68.476
X39.925Y-71.016
X46.275Y-22.986
X48.815Y-22.986
X51.355Y-22.986
X57.705Y-22.756
X57.705Y-25.296
X57.705Y-27.836
X57.705Y-30.376
X57.705Y-32.916
X57.705Y-35.456
X57.705Y-37.996
X57.705Y-40.536
X57.705Y-43.076
X57.705Y-45.616
X57.705Y-48.156
X57.705Y-50.696
X57.705Y-53.236
X57.705Y-55.776
X57.705Y-58.316
X57.705Y-60.856
X57.705Y-63.396
X57.705Y-65.936
X57.705Y-68.476
X57.705Y-71.016
T7
X48.714Y-114.154
X48.714Y-116.694
X48.714Y-119.234
X55.338Y-114.154
X55.338Y-116.694
X55.338Y-119.234
X58.874Y-108.414
X58.874Y-125.241
X66.494Y-108.414
X66.494Y-125.241
X85.492Y-90.937
X85.517Y-101.047
X85.542Y-112.641
X85.568Y-122.937
X93.992Y-90.937
X94.017Y-101.047
X94.042Y-112.641
X94.068Y-122.937
X94.72Y-23.057
X94.72Y-27.557
X96.992Y-90.937
X97.017Y-101.047
X97.042Y-112.641
X97.068Y-122.937
X101.22Y-23.057
X101.22Y-27.557
X102.967Y-90.912
X102.985Y-101.021
X102.985Y-112.603
X102.985Y-122.899
X104.742Y-23.057
X104.742Y-27.557
X111.242Y-23.057
X111.242Y-27.557
X111.467Y-90.912
X111.485Y-101.021
X111.485Y-112.603
X111.485Y-122.899
X114.467Y-90.912
X114.485Y-101.021
X114.485Y-112.603
X114.485Y-122.899
X114.814Y-23.057
X114.814Y-27.557
X120.156Y-90.912
X120.168Y-100.996
X120.193Y-122.879
X120.199Y-112.603
X121.314Y-23.057
X121.314Y-27.557
X128.656Y-90.912
X128.668Y-100.996
X128.693Y-122.879
X128.699Y-112.603
X131.656Y-90.912
X131.668Y-100.996
X131.693Y-122.879
X131.699Y-112.603
T8
X84.884Y-69.721G85X84.884Y-70.221
G05
X96.084Y-69.721G85X96.084Y-70.221
G05
X102.392Y-69.721G85X102.392Y-70.221
G05
X113.592Y-69.721G85X113.592Y-70.221
G05
X119.538Y-69.721G85X119.538Y-70.221
G05
X130.738Y-69.721G85X130.738Y-70.221
G05
T0
M30
