%FSLAX45Y45*%
G04 Gerber Fmt 4.5, Leading zero omitted, Abs format (unit mm)*
G04 Created by KiCad (PCBNEW (6.0.0-0)) date 2022-05-01 23:04:05*
%MOMM*%
%LPD*%
G01*
G04 APERTURE LIST*
%TA.AperFunction,Profile*%
%ADD10C,0.100000*%
%TD*%
%ADD11C,0.200000*%
G04 APERTURE END LIST*
D10*
X3598816Y-10093200D02*
G75*
G03*
X3598816Y-10093200I-320000J0D01*
G01*
X7069816Y-12261200D02*
G75*
G03*
X7069816Y-12261200I-320000J0D01*
G01*
X3481536Y-4462640D02*
X6577136Y-4462640D01*
X6577136Y-4462640D02*
X6577136Y-6191720D01*
X6577136Y-6191720D02*
X3481536Y-6191720D01*
X3481536Y-6191720D02*
X3481536Y-4462640D01*
X7066816Y-11099200D02*
G75*
G03*
X7066816Y-11099200I-320000J0D01*
G01*
X1999000Y-1998000D02*
X8059000Y-1998000D01*
X8059000Y-1998000D02*
X8059000Y-14848000D01*
X8059000Y-14848000D02*
X1999000Y-14848000D01*
X1999000Y-14848000D02*
X1999000Y-1998000D01*
X5356996Y-7996720D02*
G75*
G03*
X5356996Y-7996720I-328476J0D01*
G01*
X3148000Y-3724429D02*
G75*
G03*
X3148000Y-3724429I-320000J0D01*
G01*
X5256816Y-3533200D02*
G75*
G03*
X5256816Y-3533200I-225000J0D01*
G01*
X3606936Y-7996720D02*
G75*
G03*
X3606936Y-7996720I-328476J0D01*
G01*
X7071496Y-7999260D02*
G75*
G03*
X7071496Y-7999260I-328476J0D01*
G01*
X5347816Y-12261200D02*
G75*
G03*
X5347816Y-12261200I-320000J0D01*
G01*
X4252311Y-3531400D02*
G75*
G03*
X4252311Y-3531400I-225000J0D01*
G01*
X3601816Y-11105200D02*
G75*
G03*
X3601816Y-11105200I-320000J0D01*
G01*
X6262816Y-3532200D02*
G75*
G03*
X6262816Y-3532200I-225000J0D01*
G01*
X7065816Y-10090200D02*
G75*
G03*
X7065816Y-10090200I-320000J0D01*
G01*
X5345816Y-10090200D02*
G75*
G03*
X5345816Y-10090200I-320000J0D01*
G01*
X7068816Y-13287200D02*
G75*
G03*
X7068816Y-13287200I-320000J0D01*
G01*
X5347816Y-11102200D02*
G75*
G03*
X5347816Y-11102200I-320000J0D01*
G01*
X3603816Y-12264200D02*
G75*
G03*
X3603816Y-12264200I-320000J0D01*
G01*
X3605816Y-13293200D02*
G75*
G03*
X3605816Y-13293200I-320000J0D01*
G01*
X5348816Y-13291200D02*
G75*
G03*
X5348816Y-13291200I-320000J0D01*
G01*
D11*
X2251619Y-15163476D02*
X2251619Y-14963476D01*
X2299238Y-14963476D01*
X2327810Y-14973000D01*
X2346857Y-14992048D01*
X2356381Y-15011095D01*
X2365905Y-15049190D01*
X2365905Y-15077762D01*
X2356381Y-15115857D01*
X2346857Y-15134905D01*
X2327810Y-15153952D01*
X2299238Y-15163476D01*
X2251619Y-15163476D01*
X2451619Y-15163476D02*
X2451619Y-15030143D01*
X2451619Y-15068238D02*
X2461143Y-15049190D01*
X2470667Y-15039667D01*
X2489714Y-15030143D01*
X2508762Y-15030143D01*
X2575429Y-15163476D02*
X2575429Y-15030143D01*
X2575429Y-14963476D02*
X2565905Y-14973000D01*
X2575429Y-14982524D01*
X2584952Y-14973000D01*
X2575429Y-14963476D01*
X2575429Y-14982524D01*
X2699238Y-15163476D02*
X2680190Y-15153952D01*
X2670667Y-15134905D01*
X2670667Y-14963476D01*
X2804000Y-15163476D02*
X2784952Y-15153952D01*
X2775429Y-15134905D01*
X2775429Y-14963476D01*
X3032571Y-15163476D02*
X3032571Y-14963476D01*
X3099238Y-15106333D01*
X3165905Y-14963476D01*
X3165905Y-15163476D01*
X3346857Y-15163476D02*
X3346857Y-15058714D01*
X3337333Y-15039667D01*
X3318286Y-15030143D01*
X3280190Y-15030143D01*
X3261143Y-15039667D01*
X3346857Y-15153952D02*
X3327809Y-15163476D01*
X3280190Y-15163476D01*
X3261143Y-15153952D01*
X3251619Y-15134905D01*
X3251619Y-15115857D01*
X3261143Y-15096809D01*
X3280190Y-15087286D01*
X3327809Y-15087286D01*
X3346857Y-15077762D01*
X3442095Y-15030143D02*
X3442095Y-15230143D01*
X3442095Y-15039667D02*
X3461143Y-15030143D01*
X3499238Y-15030143D01*
X3518286Y-15039667D01*
X3527809Y-15049190D01*
X3537333Y-15068238D01*
X3537333Y-15125381D01*
X3527809Y-15144428D01*
X3518286Y-15153952D01*
X3499238Y-15163476D01*
X3461143Y-15163476D01*
X3442095Y-15153952D01*
X3623048Y-15144428D02*
X3632571Y-15153952D01*
X3623048Y-15163476D01*
X3613524Y-15153952D01*
X3623048Y-15144428D01*
X3623048Y-15163476D01*
X3623048Y-15039667D02*
X3632571Y-15049190D01*
X3623048Y-15058714D01*
X3613524Y-15049190D01*
X3623048Y-15039667D01*
X3623048Y-15058714D01*
M02*
