G04 #@! TF.GenerationSoftware,KiCad,Pcbnew,(6.0.0-0)*
G04 #@! TF.CreationDate,2022-05-01T23:03:33-03:00*
G04 #@! TF.ProjectId,3lw_frontpanel_circuit,336c775f-6672-46f6-9e74-70616e656c5f,rev?*
G04 #@! TF.SameCoordinates,Original*
G04 #@! TF.FileFunction,Legend,Bot*
G04 #@! TF.FilePolarity,Positive*
%FSLAX46Y46*%
G04 Gerber Fmt 4.6, Leading zero omitted, Abs format (unit mm)*
G04 Created by KiCad (PCBNEW (6.0.0-0)) date 2022-05-01 23:03:33*
%MOMM*%
%LPD*%
G01*
G04 APERTURE LIST*
G04 Aperture macros list*
%AMRoundRect*
0 Rectangle with rounded corners*
0 $1 Rounding radius*
0 $2 $3 $4 $5 $6 $7 $8 $9 X,Y pos of 4 corners*
0 Add a 4 corners polygon primitive as box body*
4,1,4,$2,$3,$4,$5,$6,$7,$8,$9,$2,$3,0*
0 Add four circle primitives for the rounded corners*
1,1,$1+$1,$2,$3*
1,1,$1+$1,$4,$5*
1,1,$1+$1,$6,$7*
1,1,$1+$1,$8,$9*
0 Add four rect primitives between the rounded corners*
20,1,$1+$1,$2,$3,$4,$5,0*
20,1,$1+$1,$4,$5,$6,$7,0*
20,1,$1+$1,$6,$7,$8,$9,0*
20,1,$1+$1,$8,$9,$2,$3,0*%
G04 Aperture macros list end*
%ADD10C,0.150000*%
%ADD11RoundRect,1.600000X0.400000X0.000000X-0.400000X0.000000X-0.400000X0.000000X0.400000X0.000000X0*%
%ADD12RoundRect,1.600000X-0.400000X0.000000X0.400000X0.000000X0.400000X0.000000X-0.400000X0.000000X0*%
G04 APERTURE END LIST*
D10*
X54999047Y-145222380D02*
X54999047Y-145936666D01*
X55046666Y-146079523D01*
X55141904Y-146174761D01*
X55284761Y-146222380D01*
X55380000Y-146222380D01*
X54046666Y-146222380D02*
X54522857Y-146222380D01*
X54522857Y-145222380D01*
X53141904Y-146127142D02*
X53189523Y-146174761D01*
X53332380Y-146222380D01*
X53427619Y-146222380D01*
X53570476Y-146174761D01*
X53665714Y-146079523D01*
X53713333Y-145984285D01*
X53760952Y-145793809D01*
X53760952Y-145650952D01*
X53713333Y-145460476D01*
X53665714Y-145365238D01*
X53570476Y-145270000D01*
X53427619Y-145222380D01*
X53332380Y-145222380D01*
X53189523Y-145270000D01*
X53141904Y-145317619D01*
X52427619Y-145222380D02*
X52427619Y-145936666D01*
X52475238Y-146079523D01*
X52570476Y-146174761D01*
X52713333Y-146222380D01*
X52808571Y-146222380D01*
X51475238Y-146222380D02*
X51951428Y-146222380D01*
X51951428Y-145222380D01*
X50570476Y-146127142D02*
X50618095Y-146174761D01*
X50760952Y-146222380D01*
X50856190Y-146222380D01*
X50999047Y-146174761D01*
X51094285Y-146079523D01*
X51141904Y-145984285D01*
X51189523Y-145793809D01*
X51189523Y-145650952D01*
X51141904Y-145460476D01*
X51094285Y-145365238D01*
X50999047Y-145270000D01*
X50856190Y-145222380D01*
X50760952Y-145222380D01*
X50618095Y-145270000D01*
X50570476Y-145317619D01*
X49856190Y-145222380D02*
X49856190Y-145936666D01*
X49903809Y-146079523D01*
X49999047Y-146174761D01*
X50141904Y-146222380D01*
X50237142Y-146222380D01*
X48903809Y-146222380D02*
X49380000Y-146222380D01*
X49380000Y-145222380D01*
X47999047Y-146127142D02*
X48046666Y-146174761D01*
X48189523Y-146222380D01*
X48284761Y-146222380D01*
X48427619Y-146174761D01*
X48522857Y-146079523D01*
X48570476Y-145984285D01*
X48618095Y-145793809D01*
X48618095Y-145650952D01*
X48570476Y-145460476D01*
X48522857Y-145365238D01*
X48427619Y-145270000D01*
X48284761Y-145222380D01*
X48189523Y-145222380D01*
X48046666Y-145270000D01*
X47999047Y-145317619D01*
X47284761Y-145222380D02*
X47284761Y-145936666D01*
X47332380Y-146079523D01*
X47427619Y-146174761D01*
X47570476Y-146222380D01*
X47665714Y-146222380D01*
X46332380Y-146222380D02*
X46808571Y-146222380D01*
X46808571Y-145222380D01*
X45427619Y-146127142D02*
X45475238Y-146174761D01*
X45618095Y-146222380D01*
X45713333Y-146222380D01*
X45856190Y-146174761D01*
X45951428Y-146079523D01*
X45999047Y-145984285D01*
X46046666Y-145793809D01*
X46046666Y-145650952D01*
X45999047Y-145460476D01*
X45951428Y-145365238D01*
X45856190Y-145270000D01*
X45713333Y-145222380D01*
X45618095Y-145222380D01*
X45475238Y-145270000D01*
X45427619Y-145317619D01*
%LPC*%
D11*
X73088156Y-22982000D03*
D12*
X27498156Y-145462000D03*
D11*
X73088156Y-145472000D03*
D12*
X27508156Y-23002000D03*
M02*
