G04 #@! TF.GenerationSoftware,KiCad,Pcbnew,(6.0.0-0)*
G04 #@! TF.CreationDate,2022-05-01T23:03:34-03:00*
G04 #@! TF.ProjectId,3lw_frontpanel_circuit,336c775f-6672-46f6-9e74-70616e656c5f,rev?*
G04 #@! TF.SameCoordinates,Original*
G04 #@! TF.FileFunction,Profile,NP*
%FSLAX46Y46*%
G04 Gerber Fmt 4.6, Leading zero omitted, Abs format (unit mm)*
G04 Created by KiCad (PCBNEW (6.0.0-0)) date 2022-05-01 23:03:34*
%MOMM*%
%LPD*%
G01*
G04 APERTURE LIST*
G04 #@! TA.AperFunction,Profile*
%ADD10C,0.100000*%
G04 #@! TD*
G04 APERTURE END LIST*
D10*
X35988156Y-100932000D02*
G75*
G03*
X35988156Y-100932000I-3200000J0D01*
G01*
X70698156Y-122612000D02*
G75*
G03*
X70698156Y-122612000I-3200000J0D01*
G01*
X34815356Y-44626400D02*
X65771356Y-44626400D01*
X65771356Y-44626400D02*
X65771356Y-61917200D01*
X65771356Y-61917200D02*
X34815356Y-61917200D01*
X34815356Y-61917200D02*
X34815356Y-44626400D01*
X70668156Y-110992000D02*
G75*
G03*
X70668156Y-110992000I-3200000J0D01*
G01*
X19990000Y-19980000D02*
X80590000Y-19980000D01*
X80590000Y-19980000D02*
X80590000Y-148480000D01*
X80590000Y-148480000D02*
X19990000Y-148480000D01*
X19990000Y-148480000D02*
X19990000Y-19980000D01*
X53569956Y-79967200D02*
G75*
G03*
X53569956Y-79967200I-3284761J0D01*
G01*
X31480000Y-37244294D02*
G75*
G03*
X31480000Y-37244294I-3200000J0D01*
G01*
X52568156Y-35332000D02*
G75*
G03*
X52568156Y-35332000I-2250000J0D01*
G01*
X36069356Y-79967200D02*
G75*
G03*
X36069356Y-79967200I-3284761J0D01*
G01*
X70714956Y-79992600D02*
G75*
G03*
X70714956Y-79992600I-3284761J0D01*
G01*
X53478156Y-122612000D02*
G75*
G03*
X53478156Y-122612000I-3200000J0D01*
G01*
X42523108Y-35314000D02*
G75*
G03*
X42523108Y-35314000I-2250000J0D01*
G01*
X36018156Y-111052000D02*
G75*
G03*
X36018156Y-111052000I-3200000J0D01*
G01*
X62628156Y-35322000D02*
G75*
G03*
X62628156Y-35322000I-2250000J0D01*
G01*
X70658156Y-100902000D02*
G75*
G03*
X70658156Y-100902000I-3200000J0D01*
G01*
X53458156Y-100902000D02*
G75*
G03*
X53458156Y-100902000I-3200000J0D01*
G01*
X70688156Y-132872000D02*
G75*
G03*
X70688156Y-132872000I-3200000J0D01*
G01*
X53478156Y-111022000D02*
G75*
G03*
X53478156Y-111022000I-3200000J0D01*
G01*
X36038156Y-122642000D02*
G75*
G03*
X36038156Y-122642000I-3200000J0D01*
G01*
X36058156Y-132932000D02*
G75*
G03*
X36058156Y-132932000I-3200000J0D01*
G01*
X53488156Y-132912000D02*
G75*
G03*
X53488156Y-132912000I-3200000J0D01*
G01*
M02*
